<?xml version="1.0" encoding="UTF-8"?>
<svg xmlns="http://www.w3.org/2000/svg" xmlns:xlink="http://www.w3.org/1999/xlink" width="31px" height="27px" viewBox="0 0 30 27" version="1.1">
<g id="surface1">
<path style=" stroke:none;fill-rule:nonzero;fill:rgb(0%,0%,0%);fill-opacity:1;" d="M 20.71875 4.390625 L 25.226562 9.144531 C 25.410156 9.347656 25.410156 9.671875 25.226562 9.875 L 14.320312 21.390625 L 9.6875 21.933594 C 9.070312 22.007812 8.546875 21.449219 8.617188 20.796875 L 9.132812 15.90625 L 20.03125 4.390625 C 20.21875 4.1875 20.53125 4.1875 20.71875 4.390625 Z M 28.804688 3.179688 L 26.371094 0.609375 C 25.609375 -0.195312 24.378906 -0.195312 23.613281 0.609375 L 21.84375 2.472656 C 21.660156 2.671875 21.660156 3 21.84375 3.199219 L 26.351562 7.957031 C 26.539062 8.15625 26.851562 8.15625 27.039062 7.957031 L 28.804688 6.09375 C 29.566406 5.285156 29.566406 3.984375 28.804688 3.179688 Z M 19.789062 18.257812 L 19.789062 23.625 L 3.820312 23.625 L 3.820312 6.75 L 15.289062 6.75 C 15.449219 6.75 15.601562 6.679688 15.710938 6.5625 L 17.710938 4.453125 C 18.089844 4.054688 17.820312 3.375 17.285156 3.375 L 3.023438 3.375 C 1.699219 3.375 0.625 4.511719 0.625 5.90625 L 0.625 24.46875 C 0.625 25.863281 1.699219 27 3.023438 27 L 20.589844 27 C 21.914062 27 22.988281 25.863281 22.988281 24.46875 L 22.988281 16.148438 C 22.988281 15.585938 22.34375 15.304688 21.960938 15.699219 L 19.964844 17.808594 C 19.859375 17.929688 19.789062 18.089844 19.789062 18.257812 Z M 19.789062 18.257812 "/>
</g>
</svg>
