<?xml version="1.0" encoding="UTF-8"?>
<svg xmlns="http://www.w3.org/2000/svg" xmlns:xlink="http://www.w3.org/1999/xlink" width="24px" height="27px" viewBox="0 0 24 27" version="1.1">
<g id="surface1">
<path style=" stroke:none;fill-rule:nonzero;fill:rgb(0%,0%,0%);fill-opacity:1;" d="M 1.714844 24.46875 C 1.714844 25.867188 2.867188 27 4.285156 27 L 19.714844 27 C 21.132812 27 22.285156 25.867188 22.285156 24.46875 L 22.285156 6.75 L 1.714844 6.75 Z M 16.285156 10.96875 C 16.285156 10.503906 16.667969 10.125 17.144531 10.125 C 17.617188 10.125 18 10.503906 18 10.96875 L 18 22.78125 C 18 23.246094 17.617188 23.625 17.144531 23.625 C 16.667969 23.625 16.285156 23.246094 16.285156 22.78125 Z M 11.144531 10.96875 C 11.144531 10.503906 11.527344 10.125 12 10.125 C 12.472656 10.125 12.855469 10.503906 12.855469 10.96875 L 12.855469 22.78125 C 12.855469 23.246094 12.472656 23.625 12 23.625 C 11.527344 23.625 11.144531 23.246094 11.144531 22.78125 Z M 6 10.96875 C 6 10.503906 6.382812 10.125 6.855469 10.125 C 7.332031 10.125 7.714844 10.503906 7.714844 10.96875 L 7.714844 22.78125 C 7.714844 23.246094 7.332031 23.625 6.855469 23.625 C 6.382812 23.625 6 23.246094 6 22.78125 Z M 23.144531 1.6875 L 16.714844 1.6875 L 16.210938 0.703125 C 15.992188 0.269531 15.546875 0 15.058594 0 L 8.9375 0 C 8.449219 0 8.003906 0.269531 7.789062 0.703125 L 7.285156 1.6875 L 0.855469 1.6875 C 0.382812 1.6875 0 2.066406 0 2.53125 L 0 4.21875 C 0 4.683594 0.382812 5.0625 0.855469 5.0625 L 23.144531 5.0625 C 23.617188 5.0625 24 4.683594 24 4.21875 L 24 2.53125 C 24 2.066406 23.617188 1.6875 23.144531 1.6875 Z M 23.144531 1.6875 "/>
</g>
</svg>
